<?xml version="1.0" encoding="utf-8"?>
<!-- Generator: Adobe Illustrator 27.1.1, SVG Export Plug-In . SVG Version: 6.00 Build 0)  -->
<svg version="1.1" id="Layer_1" xmlns="http://www.w3.org/2000/svg" xmlns:xlink="http://www.w3.org/1999/xlink" x="0px" y="0px"
	 viewBox="0 0 200 200" style="enable-background:new 0 0 200 200;" xml:space="preserve">
<style type="text/css">
	.st0{fill:url(#SVGID_1_);}
	.st1{fill:url(#SVGID_00000077288362873567586890000005973310544993558915_);}
	.st2{fill:url(#SVGID_00000024689602204356701000000007806327747124803495_);}
	.st3{fill:url(#SVGID_00000065792418753969457120000004076409780546346371_);}
	.st4{fill:url(#SVGID_00000149356221502608794060000009874244965778471593_);}
	.st5{fill:url(#SVGID_00000000904359897759430880000004348946263585937593_);}
	.st6{fill:url(#SVGID_00000119840758785190618390000010901640174057763234_);}
	.st7{fill:url(#SVGID_00000173135252562595874750000005540736452424109733_);}
	.st8{fill:url(#SVGID_00000142872842515765283730000001443902738696807599_);}
	.st9{fill:url(#SVGID_00000053523760066650174320000007861786821205190068_);}
	.st10{fill:#FFFFFF;}
	.st11{fill:url(#SVGID_00000052089324987043944500000005615824652159608467_);}
	.st12{fill:url(#SVGID_00000016760402841315580300000016657491052238767268_);}
	.st13{fill:url(#SVGID_00000019675012995246217310000000430117138809137851_);}
	.st14{fill:url(#SVGID_00000150092706681648879230000015538370273237301409_);}
	.st15{fill:url(#SVGID_00000091716735976311788110000013764026521797445517_);}
	.st16{fill:url(#SVGID_00000014597477209412830270000012220093457080706723_);}
	.st17{fill:url(#SVGID_00000183930934210655577920000010410919996979765160_);}
</style>
<g>
	<g>
		<g>
			<radialGradient id="SVGID_1_" cx="99.9459" cy="30.376" r="59.8566" gradientUnits="userSpaceOnUse">
				<stop  offset="0" style="stop-color:#7C65DE"/>
				<stop  offset="0.9944" style="stop-color:#934CB6"/>
			</radialGradient>
			<polygon class="st0" points="142.2,3.2 125.6,3.2 108.9,3.2 92.1,3.2 75.2,3.2 58.7,3.2 31.4,41.3 19.8,57.5 51.3,57.5 
				51.4,57.5 83.6,57.5 116,57.5 148.1,57.5 180.1,57.5 			"/>
			
				<radialGradient id="SVGID_00000045604488991634763830000008179290634919832202_" cx="68.4317" cy="57.4051" r="55.504" gradientUnits="userSpaceOnUse">
				<stop  offset="0" style="stop-color:#FDCFA7"/>
				<stop  offset="1" style="stop-color:#F79996"/>
			</radialGradient>
			<polygon style="fill:url(#SVGID_00000045604488991634763830000008179290634919832202_);" points="92.1,3.2 75.2,3.2 51.4,57.5 
				83.6,57.5 			"/>
			
				<radialGradient id="SVGID_00000157308007204382377800000010682763333967908227_" cx="131.7595" cy="57.7793" r="84.8579" gradientUnits="userSpaceOnUse">
				<stop  offset="0" style="stop-color:#FDCFA7"/>
				<stop  offset="0.9944" style="stop-color:#F79996"/>
			</radialGradient>
			<polygon style="fill:url(#SVGID_00000157308007204382377800000010682763333967908227_);" points="125.6,3.2 148.1,57.5 116,57.5 
				108.9,3.2 			"/>
		</g>
		<g>
			
				<radialGradient id="SVGID_00000164502234957272826370000009361292507900624295_" cx="35.6439" cy="72.4448" r="14.6782" gradientUnits="userSpaceOnUse">
				<stop  offset="0" style="stop-color:#6D47D1"/>
				<stop  offset="0.9944" style="stop-color:#713590"/>
			</radialGradient>
			<path style="fill:url(#SVGID_00000164502234957272826370000009361292507900624295_);" d="M20,57.6h-0.2h0
				c0.5,8.3,7.4,14.8,15.8,14.8c8.4,0,15.3-6.5,15.8-14.8H20z"/>
			
				<linearGradient id="SVGID_00000072272955469510463820000007674222946527559078_" gradientUnits="userSpaceOnUse" x1="67.4575" y1="57.6248" x2="67.4575" y2="73.5318">
				<stop  offset="0" style="stop-color:#B21C68"/>
				<stop  offset="1" style="stop-color:#841250"/>
			</linearGradient>
			<path style="fill:url(#SVGID_00000072272955469510463820000007674222946527559078_);" d="M51.5,57.5h-0.2h0
				c0.5,8.4,7.5,15.1,16.1,15.1C76,72.6,83,66,83.6,57.5H51.5z"/>
			
				<radialGradient id="SVGID_00000127735857414707238930000008691715530380493752_" cx="67.3077" cy="72.8939" r="15.3496" gradientUnits="userSpaceOnUse">
				<stop  offset="0" style="stop-color:#FDCFA7"/>
				<stop  offset="0.9944" style="stop-color:#F79996"/>
			</radialGradient>
			<path style="fill:url(#SVGID_00000127735857414707238930000008691715530380493752_);" d="M51.5,57.5h-0.2h0
				c0.5,8.4,7.5,15.1,16.1,15.1C76,72.6,83,66,83.6,57.5H51.5z"/>
			
				<radialGradient id="SVGID_00000138557331383207758520000015702604854319045052_" cx="99.8699" cy="72.6693" r="15.1666" gradientUnits="userSpaceOnUse">
				<stop  offset="0" style="stop-color:#7C65DE"/>
				<stop  offset="0.9944" style="stop-color:#934CB6"/>
			</radialGradient>
			<path style="fill:url(#SVGID_00000138557331383207758520000015702604854319045052_);" d="M83.7,57.5h-0.2h0
				c0.5,8.4,7.6,15.1,16.2,15.1c8.6,0,15.7-6.7,16.2-15.1H83.7z"/>
			
				<radialGradient id="SVGID_00000033353631379323689220000003595109367658609831_" cx="132.0595" cy="72.6132" r="14.9355" gradientUnits="userSpaceOnUse">
				<stop  offset="0" style="stop-color:#FDCFA7"/>
				<stop  offset="0.9944" style="stop-color:#F79996"/>
			</radialGradient>
			<path style="fill:url(#SVGID_00000033353631379323689220000003595109367658609831_);" d="M116.2,57.5h-0.2h0
				c0.5,8.4,7.5,15.1,16,15.1c8.5,0,15.5-6.7,16-15.1H116.2z"/>
			
				<radialGradient id="SVGID_00000169543576681055285890000006330416201845554050_" cx="164.1521" cy="72.6693" r="15.1181" gradientUnits="userSpaceOnUse">
				<stop  offset="0" style="stop-color:#7C65DE"/>
				<stop  offset="0.9944" style="stop-color:#934CB6"/>
			</radialGradient>
			<path style="fill:url(#SVGID_00000169543576681055285890000006330416201845554050_);" d="M148.3,57.5h-0.2h0
				c0.5,8.4,7.5,15.1,16,15.1c8.5,0,15.5-6.7,16-15.1H148.3z"/>
		</g>
		
			<radialGradient id="SVGID_00000102532437344413893290000000259606539135870625_" cx="99.8018" cy="43.4615" r="100.6276" gradientUnits="userSpaceOnUse">
			<stop  offset="0" style="stop-color:#7C65DE"/>
			<stop  offset="0.9944" style="stop-color:#934CB6"/>
		</radialGradient>
		<path style="fill:url(#SVGID_00000102532437344413893290000000259606539135870625_);" d="M132.1,74c-7.4,0-13.8-4.9-16-11.6
			c-2.3,6.8-8.7,11.6-16.2,11.6c-7.5,0-14-4.9-16.2-11.6C81.4,69.2,75,74,67.5,74c-7.4,0-13.8-4.9-16.1-11.6
			c-0.5,1.4-1.1,2.7-1.9,3.9c-2.6,5.3-7.7,9.2-13.8,10.1v44.5c0,12.4,10.1,22.5,22.5,22.5h83.5c12.4,0,22.5-10.1,22.5-22.5V76.4
			c-6.1-0.8-11.2-4.5-13.9-9.7c-0.9-1.3-1.6-2.7-2.1-4.2C145.9,69.2,139.5,74,132.1,74z"/>
		<g>
			
				<image style="overflow:visible;" width="519" height="519" xlink:href="B4FC1222.png"  transform="matrix(0.24 0 0 0.24 38.88 48.48)">
			</image>
		</g>
		<g>
			<path class="st10" d="M99.9,93.9c4.9,0,9.2,2.2,12.1,5.7h12.1c-3.9-9.5-13.3-16.2-24.2-16.2c-10.9,0-20.2,6.7-24.2,16.2h12.1
				C90.7,96.2,95.1,93.9,99.9,93.9z"/>
			<path class="st10" d="M121.4,124.5c2-2.9,3.4-6.1,4.1-9.6c0.3-1.7,0.5-3.4,0.5-5.2c0-1.5-0.1-3-0.4-4.4H96.8v9.6h17.9
				c-1.6,4.5-5.3,8.1-9.8,9.6c-1.6,0.5-3.2,0.8-4.9,0.8c-1.7,0-3.4-0.3-4.9-0.8c-6.2-2.1-10.8-7.9-10.8-14.9c0-1.5,0.2-3,0.6-4.4
				H74.2c-0.2,1.4-0.4,2.9-0.4,4.4c0,1.1,0.1,2.1,0.2,3.1c0.4,3.5,1.5,6.8,3.2,9.7c0.4,0.7,0.8,1.4,1.3,2c3.3,4.8,8.2,8.4,13.9,10.2
				c2.4,0.7,4.9,1.1,7.6,1.1c2.6,0,5.2-0.4,7.6-1.1C113.2,132.9,118.1,129.3,121.4,124.5z"/>
		</g>
	</g>
	<g>
		
			<linearGradient id="SVGID_00000053537247560211763850000007981407844674825904_" gradientUnits="userSpaceOnUse" x1="20.1326" y1="146.79" x2="20.1326" y2="221.2169">
			<stop  offset="0" style="stop-color:#7C65DE"/>
			<stop  offset="0.9944" style="stop-color:#934CB6"/>
		</linearGradient>
		<path style="fill:url(#SVGID_00000053537247560211763850000007981407844674825904_);" d="M39.7,175.6v2.9c0,5.4-1.7,9.8-5.2,13.2
			s-8,5.1-13.5,5.1c-5.9,0-10.7-1.9-14.6-5.7s-5.8-8.5-5.8-14c0-5.5,1.9-10.2,5.7-14.1c3.8-3.8,8.6-5.8,14.2-5.8
			c3.6,0,6.8,0.8,9.7,2.4c2.9,1.6,5.2,3.8,6.9,6.4l-6.4,3.7c-0.9-1.6-2.3-2.8-4.1-3.8c-1.8-1-3.9-1.5-6.1-1.5
			c-3.6,0-6.6,1.2-8.9,3.6s-3.5,5.4-3.5,9c0,3.6,1.2,6.6,3.6,8.9c2.4,2.3,5.5,3.5,9.4,3.5c2.9,0,5.3-0.6,7.2-1.9
			c1.9-1.3,3.2-3.1,3.9-5.3H20.6v-6.6H39.7z"/>
		
			<linearGradient id="SVGID_00000169540705770747177580000004138562977600878469_" gradientUnits="userSpaceOnUse" x1="55.2" y1="146.79" x2="55.2" y2="221.2169">
			<stop  offset="0" style="stop-color:#7C65DE"/>
			<stop  offset="0.9944" style="stop-color:#934CB6"/>
		</linearGradient>
		<path style="fill:url(#SVGID_00000169540705770747177580000004138562977600878469_);" d="M45,183v-6.7h20.4v6.7H45z"/>
		
			<linearGradient id="SVGID_00000026855202951595110780000016626412912225394593_" gradientUnits="userSpaceOnUse" x1="84.2874" y1="146.79" x2="84.2874" y2="221.2169">
			<stop  offset="0" style="stop-color:#7C65DE"/>
			<stop  offset="0.9944" style="stop-color:#934CB6"/>
		</linearGradient>
		<path style="fill:url(#SVGID_00000026855202951595110780000016626412912225394593_);" d="M84.9,196.8c-3.8,0-6.9-0.8-9.5-2.5
			c-2.6-1.7-4.4-4-5.4-6.9l6.4-3.8c1.5,3.9,4.4,5.8,8.8,5.8c2.1,0,3.6-0.4,4.6-1.1c1-0.8,1.5-1.7,1.5-2.9c0-1.3-0.6-2.4-1.8-3.1
			c-1.2-0.7-3.3-1.5-6.4-2.4c-1.7-0.5-3.1-1-4.3-1.5c-1.2-0.5-2.4-1.2-3.5-2c-1.2-0.9-2.1-1.9-2.7-3.2c-0.6-1.3-0.9-2.8-0.9-4.6
			c0-3.4,1.2-6.2,3.7-8.2s5.4-3.1,8.8-3.1c3.1,0,5.8,0.8,8.1,2.3c2.3,1.5,4.2,3.6,5.5,6.3l-6.3,3.6c-1.5-3.3-4-4.9-7.3-4.9
			c-1.6,0-2.8,0.4-3.7,1.1c-0.9,0.7-1.3,1.6-1.3,2.7c0,1.2,0.5,2.2,1.5,2.9c1,0.7,2.9,1.5,5.7,2.4c1.2,0.4,2,0.6,2.6,0.8
			c0.6,0.2,1.4,0.5,2.4,0.9c1,0.4,1.8,0.8,2.4,1.2c0.6,0.4,1.2,0.9,1.9,1.5c0.7,0.6,1.3,1.3,1.7,1.9c0.4,0.7,0.7,1.4,1,2.4
			c0.3,0.9,0.4,1.9,0.4,3c0,3.5-1.3,6.3-3.8,8.4S89,196.8,84.9,196.8z"/>
		
			<linearGradient id="SVGID_00000139254140498244039360000007658398877646213519_" gradientUnits="userSpaceOnUse" x1="109.0251" y1="146.79" x2="109.0251" y2="221.2169">
			<stop  offset="0" style="stop-color:#7C65DE"/>
			<stop  offset="0.9944" style="stop-color:#934CB6"/>
		</linearGradient>
		<path style="fill:url(#SVGID_00000139254140498244039360000007658398877646213519_);" d="M118,175.6h-6.1v11.3
			c0,0.9,0.2,1.6,0.7,2.1c0.5,0.4,1.2,0.7,2.1,0.7s2,0,3.4,0v6.4c-4.8,0.5-8.2,0.1-10.2-1.4c-2-1.4-3-4-3-7.8v-11.3h-4.7v-6.7h4.7
			v-5.5l7-2.1v7.6h6.1V175.6z"/>
		
			<linearGradient id="SVGID_00000169546922142278373000000007848878444410255503_" gradientUnits="userSpaceOnUse" x1="135.0674" y1="146.79" x2="135.0674" y2="221.2169">
			<stop  offset="0" style="stop-color:#7C65DE"/>
			<stop  offset="0.9944" style="stop-color:#934CB6"/>
		</linearGradient>
		<path style="fill:url(#SVGID_00000169546922142278373000000007848878444410255503_);" d="M145.3,192.6c-2.8,2.8-6.2,4.2-10.2,4.2
			s-7.4-1.4-10.2-4.2c-2.8-2.8-4.2-6.2-4.2-10.2c0-4,1.4-7.4,4.2-10.2c2.8-2.8,6.2-4.2,10.2-4.2s7.4,1.4,10.2,4.2
			c2.8,2.8,4.2,6.2,4.2,10.2C149.4,186.5,148.1,189.9,145.3,192.6z M129.8,187.8c1.4,1.4,3.1,2.1,5.2,2.1c2.1,0,3.9-0.7,5.3-2.1
			c1.4-1.4,2.1-3.2,2.1-5.4s-0.7-4-2.1-5.4c-1.4-1.4-3.2-2.1-5.3-2.1c-2.1,0-3.9,0.7-5.2,2.1c-1.4,1.4-2.1,3.2-2.1,5.4
			S128.4,186.4,129.8,187.8z"/>
		
			<linearGradient id="SVGID_00000078730928903503574330000005570498000990156701_" gradientUnits="userSpaceOnUse" x1="162.0342" y1="146.79" x2="162.0342" y2="221.2169">
			<stop  offset="0" style="stop-color:#7C65DE"/>
			<stop  offset="0.9944" style="stop-color:#934CB6"/>
		</linearGradient>
		<path style="fill:url(#SVGID_00000078730928903503574330000005570498000990156701_);" d="M161.4,173.5c0.7-1.7,1.7-3,3.2-3.9
			c1.5-0.9,3.2-1.3,5-1.3v7.8c-2.1-0.3-4.1,0.2-5.7,1.3c-1.7,1.1-2.5,3-2.5,5.6v13h-7v-27.2h7V173.5z"/>
		
			<linearGradient id="SVGID_00000023976325479306817280000000015260274320237994_" gradientUnits="userSpaceOnUse" x1="185.3584" y1="146.79" x2="185.3584" y2="221.2169">
			<stop  offset="0" style="stop-color:#7C65DE"/>
			<stop  offset="0.9944" style="stop-color:#934CB6"/>
		</linearGradient>
		<path style="fill:url(#SVGID_00000023976325479306817280000000015260274320237994_);" d="M178.6,185.3c0.9,3.4,3.5,5.1,7.7,5.1
			c2.7,0,4.7-0.9,6.1-2.7l5.7,3.3c-2.7,3.9-6.6,5.8-11.9,5.8c-4.5,0-8.1-1.4-10.8-4.1c-2.7-2.7-4.1-6.1-4.1-10.3
			c0-4.1,1.3-7.5,4-10.2c2.7-2.7,6.1-4.1,10.3-4.1c4,0,7.3,1.4,9.9,4.1c2.6,2.8,3.9,6.2,3.9,10.2c0,0.9-0.1,1.9-0.3,2.9H178.6z
			 M178.5,179.9h13.9c-0.4-1.8-1.2-3.2-2.5-4.1c-1.2-0.9-2.7-1.4-4.3-1.4c-1.9,0-3.4,0.5-4.7,1.4
			C179.7,176.8,178.9,178.1,178.5,179.9z"/>
	</g>
</g>
</svg>
