<?xml version="1.0" encoding="UTF-8"?>
<svg id="Layer_1" data-name="Layer 1" xmlns="http://www.w3.org/2000/svg" viewBox="0 0 19.3 19.3">
  <defs>
    <style>
      .cls-1 {
        fill: #602d7b;
        fill-rule: evenodd;
      }
    </style>
  </defs>
  <path id="_264d89beaa432b28f34b81c6af95aa84" data-name=" 264d89beaa432b28f34b81c6af95aa84" class="cls-1" d="m9.7,19.3c5.3,0,9.7-4.3,9.7-9.7S15,0,9.7,0,0,4.3,0,9.7s4.3,9.7,9.7,9.7Zm2.9-11.6c0,1.6-1.3,2.9-2.9,2.9s-2.9-1.3-2.9-2.9,1.3-2.9,2.9-2.9,2.9,1.3,2.9,2.9ZM3.9,14.5c2.4-3.2,6.9-3.9,10.1-1.5.5.4,1.1.9,1.5,1.5-2.4,3.2-6.9,3.9-10.1,1.5-.5-.4-1.1-.9-1.5-1.5Z"/>
</svg>