<?xml version="1.0" encoding="utf-8"?>
<!-- Generator: Adobe Illustrator 27.1.1, SVG Export Plug-In . SVG Version: 6.00 Build 0)  -->
<svg version="1.1" id="Layer_1" xmlns="http://www.w3.org/2000/svg" xmlns:xlink="http://www.w3.org/1999/xlink" x="0px" y="0px"
	 viewBox="0 0 30 30" style="enable-background:new 0 0 30 30;" xml:space="preserve">
<style type="text/css">
	.st0{fill:#FFFFFF;}
	.st1{fill:#602D7B;}
</style>
<rect class="st0" width="30" height="30"/>
<g id="Group_796" transform="translate(-11.586 -11.28)">
	<path id="Path_488" class="st1" d="M26.6,41c-8,0-14.5-6.5-14.5-14.5c0-3.9,1.6-7.7,4.5-10.4c0.3-0.3,0.7-0.3,1,0
		c0.3,0.3,0.3,0.7,0,1l0,0c-5.2,5-5.4,13.3-0.4,18.5s13.3,5.4,18.5,0.4S41,22.6,36,17.4c-0.1-0.1-0.3-0.3-0.4-0.4
		c-0.3-0.3-0.3-0.7,0-1c0.3-0.3,0.7-0.3,1,0c5.8,5.5,6,14.7,0.4,20.5C34.3,39.4,30.5,41,26.6,41z"/>
	<path id="Path_489" class="st1" d="M26.6,27.7c-0.4,0-0.7-0.3-0.7-0.7V12.3c0-0.4,0.3-0.7,0.7-0.7c0.4,0,0.7,0.3,0.7,0.7V27
		C27.3,27.4,27,27.7,26.6,27.7z"/>
</g>
</svg>
