<?xml version="1.0" encoding="utf-8"?>
<!-- Generator: Adobe Illustrator 27.1.1, SVG Export Plug-In . SVG Version: 6.00 Build 0)  -->
<svg version="1.1" id="Layer_1" xmlns="http://www.w3.org/2000/svg" xmlns:xlink="http://www.w3.org/1999/xlink" x="0px" y="0px"
	 viewBox="0 0 24 24" style="enable-background:new 0 0 24 24;" xml:space="preserve">
<style type="text/css">
	.st0{fill-rule:evenodd;clip-rule:evenodd;}
</style>
<path class="st0" d="M5,11v1h8V5H3V4c0-0.6,0.4-1,1-1h10c0.6,0,1,0.4,1,1v2h4.7c1.1,0,1.6,0.6,1.9,1.1c0.6,0.9,1.5,2.4,2.1,3.4
	c0.2,0.3,0.3,0.7,0.3,1V16c0,1.1-0.7,2-2,2h-1c0,1.7-1.3,3-3,3s-3-1.3-3-3h-4c0,1.7-1.3,3-3,3s-3-1.3-3-3H4c-0.6,0-1-0.4-1-1v-6H1V9
	h7v2H5z M8,16.8c0.7,0,1.2,0.5,1.2,1.2S8.7,19.2,8,19.2S6.8,18.7,6.8,18S7.3,16.8,8,16.8z M18,16.8c0.7,0,1.2,0.5,1.2,1.2
	s-0.5,1.2-1.2,1.2s-1.2-0.5-1.2-1.2S17.3,16.8,18,16.8z M15,14H5v2h0.8c0.5-0.6,1.3-1,2.2-1s1.7,0.4,2.2,1h5.5c0.5-0.6,1.3-1,2.2-1
	s1.7,0.4,2.2,1H22v-4.6l-1.7-2.9C20.1,8.2,19.8,8,19.4,8H15C15,8,15,14,15,14z M16,9v3h5l-1.4-2.5C19.4,9.2,19.1,9,18.7,9H16z M0,6
	h8v2H0V6z"/>
</svg>
