<?xml version="1.0" encoding="utf-8"?>
<!-- Generator: Adobe Illustrator 27.1.1, SVG Export Plug-In . SVG Version: 6.00 Build 0)  -->
<svg version="1.1" id="Layer_1" xmlns="http://www.w3.org/2000/svg" xmlns:xlink="http://www.w3.org/1999/xlink" x="0px" y="0px"
	 viewBox="0 0 30 30" style="enable-background:new 0 0 30 30;" xml:space="preserve">
<style type="text/css">
	.st0{fill:#FFFFFF;}
	.st1{fill:#602D7B;}
</style>
<rect class="st0" width="30" height="30"/>
<g>
	<path class="st1" d="M9.2,23.7c-1.6,0-2.9,1.3-2.9,2.9c0,1.6,1.3,2.9,2.9,2.9s2.9-1.3,2.9-2.9C12.1,25,10.8,23.7,9.2,23.7
		C9.2,23.7,9.2,23.7,9.2,23.7z"/>
	<path class="st1" d="M0.5,0.5v2.9h2.9l5.2,11l-2,3.6c-0.2,0.4-0.4,0.9-0.4,1.4c0,1.6,1.3,2.9,2.9,2.9h17.4v-2.9H9.8
		c-0.2,0-0.4-0.2-0.4-0.4c0-0.1,0-0.1,0-0.2l1.3-2.4h10.8c1.1,0,2-0.6,2.5-1.5l5.2-9.4c0.1-0.2,0.2-0.5,0.2-0.7
		c0-0.8-0.6-1.4-1.4-1.4H6.6L5.2,0.5H0.5z"/>
	<path class="st1" d="M23.7,23.7c-1.6,0-2.9,1.3-2.9,2.9c0,1.6,1.3,2.9,2.9,2.9s2.9-1.3,2.9-2.9C26.6,25,25.3,23.7,23.7,23.7
		C23.7,23.7,23.7,23.7,23.7,23.7z"/>
</g>
</svg>
