<?xml version="1.0" encoding="utf-8"?>
<!-- Generator: Adobe Illustrator 27.1.1, SVG Export Plug-In . SVG Version: 6.00 Build 0)  -->
<svg version="1.1" id="Layer_1" xmlns="http://www.w3.org/2000/svg" xmlns:xlink="http://www.w3.org/1999/xlink" x="0px" y="0px"
	 viewBox="0 0 59.5 12" style="enable-background:new 0 0 59.5 12;" xml:space="preserve">
<style type="text/css">
	.st0{fill:url(#SVGID_1_);}
	.st1{fill:url(#SVGID_00000009590262512412912280000006146895096525314461_);}
	.st2{fill:url(#SVGID_00000166653580094677509980000014339794038149251487_);}
	.st3{fill:url(#SVGID_00000047037887191198081620000005002398807755537575_);}
	.st4{fill:url(#SVGID_00000031192221753049091780000006484991162134086573_);}
	.st5{fill:url(#SVGID_00000148657749724326816730000000636786814206014599_);}
	.st6{fill:url(#SVGID_00000024721715987411671650000018083226483218091180_);}
</style>
<g>
	
		<linearGradient id="SVGID_1_" gradientUnits="userSpaceOnUse" x1="9.0225" y1="33.8457" x2="9.0225" y2="14.5443" gradientTransform="matrix(1 0 0 -1 0 32)">
		<stop  offset="0" style="stop-color:#7C65DE"/>
		<stop  offset="0.9944" style="stop-color:#934CB6"/>
	</linearGradient>
	<path class="st0" d="M14.1,5.6v0.8c0,1.4-0.4,2.5-1.3,3.4s-2.1,1.3-3.5,1.3c-1.5,0-2.8-0.5-3.8-1.5S4,7.4,4,6s0.5-2.6,1.5-3.7
		c1-1,2.2-1.5,3.7-1.5c0.9,0,1.8,0.2,2.5,0.6c0.8,0.4,1.3,1,1.8,1.7l-1.7,1c-0.2-0.4-0.6-0.7-1.1-1s-1-0.4-1.6-0.4
		C8.2,2.7,7.4,3,6.8,3.7S5.9,5.1,5.9,6s0.3,1.7,0.9,2.3c0.6,0.6,1.4,0.9,2.4,0.9c0.8,0,1.4-0.2,1.9-0.5c0.5-0.3,0.8-0.8,1-1.4h-3
		V5.6L14.1,5.6L14.1,5.6z"/>
	
		<linearGradient id="SVGID_00000030460268778605654580000004406120617514677941_" gradientUnits="userSpaceOnUse" x1="18.1121" y1="33.8457" x2="18.1121" y2="14.5443" gradientTransform="matrix(1 0 0 -1 0 32)">
		<stop  offset="0" style="stop-color:#7C65DE"/>
		<stop  offset="0.9944" style="stop-color:#934CB6"/>
	</linearGradient>
	<path style="fill:url(#SVGID_00000030460268778605654580000004406120617514677941_);" d="M15.5,7.5V5.8h5.3v1.7H15.5z"/>
	
		<linearGradient id="SVGID_00000093136066298294011640000014380364294852944047_" gradientUnits="userSpaceOnUse" x1="25.6847" y1="33.8457" x2="25.6847" y2="14.5443" gradientTransform="matrix(1 0 0 -1 0 32)">
		<stop  offset="0" style="stop-color:#7C65DE"/>
		<stop  offset="0.9944" style="stop-color:#934CB6"/>
	</linearGradient>
	<path style="fill:url(#SVGID_00000093136066298294011640000014380364294852944047_);" d="M25.8,11.1c-1,0-1.8-0.2-2.5-0.6
		c-0.7-0.4-1.1-1-1.4-1.8l1.7-1c0.4,1,1.1,1.5,2.3,1.5c0.5,0,0.9-0.1,1.2-0.3c0.3-0.2,0.4-0.4,0.4-0.8c0-0.3-0.2-0.6-0.5-0.8
		c-0.3-0.2-0.9-0.4-1.7-0.6c-0.4-0.1-0.8-0.3-1.1-0.4c-0.3-0.1-0.6-0.3-0.9-0.5C23,5.6,22.8,5.3,22.6,5c-0.2-0.3-0.2-0.7-0.2-1.2
		c0-0.9,0.3-1.6,1-2.1s1.4-0.8,2.3-0.8c0.8,0,1.5,0.2,2.1,0.6s1.1,0.9,1.4,1.6L27.5,4c-0.4-0.9-1-1.3-1.9-1.3c-0.4,0-0.7,0.1-1,0.3
		c-0.2,0.2-0.3,0.4-0.3,0.7c0,0.3,0.1,0.6,0.4,0.8c0.3,0.2,0.8,0.4,1.5,0.6c0.3,0.1,0.5,0.2,0.7,0.2c0.2,0.1,0.4,0.1,0.6,0.2
		c0.3,0.1,0.5,0.2,0.6,0.3c0.2,0.1,0.3,0.2,0.5,0.4c0.2,0.2,0.3,0.3,0.4,0.5c0.1,0.2,0.2,0.4,0.3,0.6c0.1,0.2,0.1,0.5,0.1,0.8
		c0,0.9-0.3,1.6-1,2.2C27.8,10.9,26.9,11.1,25.8,11.1z"/>
	
		<linearGradient id="SVGID_00000031204707081644828950000013741969591736603552_" gradientUnits="userSpaceOnUse" x1="32.1033" y1="33.8457" x2="32.1033" y2="14.5443" gradientTransform="matrix(1 0 0 -1 0 32)">
		<stop  offset="0" style="stop-color:#7C65DE"/>
		<stop  offset="0.9944" style="stop-color:#934CB6"/>
	</linearGradient>
	<path style="fill:url(#SVGID_00000031204707081644828950000013741969591736603552_);" d="M34.4,5.6h-1.6v2.9c0,0.2,0.1,0.4,0.2,0.5
		c0.1,0.1,0.3,0.2,0.5,0.2c0.2,0,0.5,0,0.9,0v1.7c-1.2,0.1-2.1,0-2.6-0.4c-0.5-0.4-0.8-1-0.8-2V5.6h-1.2V3.9H31V2.5l1.8-0.5v2h1.6
		V5.6z"/>
	
		<linearGradient id="SVGID_00000158010944593083620550000017909041331558805410_" gradientUnits="userSpaceOnUse" x1="38.833" y1="33.8457" x2="38.833" y2="14.5443" gradientTransform="matrix(1 0 0 -1 0 32)">
		<stop  offset="0" style="stop-color:#7C65DE"/>
		<stop  offset="0.9944" style="stop-color:#934CB6"/>
	</linearGradient>
	<path style="fill:url(#SVGID_00000158010944593083620550000017909041331558805410_);" d="M41.5,10c-0.7,0.7-1.6,1.1-2.6,1.1
		c-1,0-1.9-0.4-2.6-1.1c-0.7-0.7-1.1-1.6-1.1-2.6s0.4-1.9,1.1-2.6c0.7-0.7,1.6-1.1,2.6-1.1c1,0,1.9,0.4,2.6,1.1
		c0.7,0.7,1.1,1.6,1.1,2.6C42.5,8.5,42.2,9.3,41.5,10z M37.5,8.8c0.4,0.4,0.8,0.5,1.3,0.5c0.5,0,1-0.2,1.4-0.5
		c0.4-0.4,0.5-0.8,0.5-1.4s-0.2-1-0.5-1.4c-0.4-0.4-0.8-0.5-1.4-0.5s-1,0.2-1.3,0.5c-0.4,0.4-0.5,0.8-0.5,1.4S37.1,8.4,37.5,8.8z"/>
	
		<linearGradient id="SVGID_00000031188118369480111130000007308609637944937361_" gradientUnits="userSpaceOnUse" x1="45.8091" y1="33.8457" x2="45.8091" y2="14.5443" gradientTransform="matrix(1 0 0 -1 0 32)">
		<stop  offset="0" style="stop-color:#7C65DE"/>
		<stop  offset="0.9944" style="stop-color:#934CB6"/>
	</linearGradient>
	<path style="fill:url(#SVGID_00000031188118369480111130000007308609637944937361_);" d="M45.7,5.1c0.2-0.4,0.4-0.8,0.8-1
		c0.4-0.2,0.8-0.3,1.3-0.3v2c-0.5-0.1-1.1,0.1-1.5,0.3c-0.4,0.3-0.6,0.8-0.6,1.5v3.4h-1.8V3.9h1.8V5.1z"/>
	
		<linearGradient id="SVGID_00000110461931994480789970000002009808366334074034_" gradientUnits="userSpaceOnUse" x1="51.8646" y1="33.8457" x2="51.8646" y2="14.5443" gradientTransform="matrix(1 0 0 -1 0 32)">
		<stop  offset="0" style="stop-color:#7C65DE"/>
		<stop  offset="0.9944" style="stop-color:#934CB6"/>
	</linearGradient>
	<path style="fill:url(#SVGID_00000110461931994480789970000002009808366334074034_);" d="M50.1,8.1c0.2,0.9,0.9,1.3,2,1.3
		c0.7,0,1.2-0.2,1.6-0.7l1.5,0.9c-0.7,1-1.7,1.5-3.1,1.5c-1.2,0-2.1-0.4-2.8-1.1c-0.7-0.7-1.1-1.6-1.1-2.7c0-1.1,0.3-1.9,1-2.6
		s1.6-1.1,2.7-1.1c1,0,1.9,0.4,2.6,1.1c0.7,0.7,1,1.6,1,2.6c0,0.2,0,0.5-0.1,0.8H50.1z M50.1,6.7h3.6c-0.1-0.5-0.3-0.8-0.6-1.1
		c-0.3-0.2-0.7-0.4-1.1-0.4c-0.5,0-0.9,0.1-1.2,0.4C50.4,5.9,50.2,6.3,50.1,6.7z"/>
</g>
</svg>
