<?xml version="1.0" encoding="utf-8"?>
<!-- Generator: Adobe Illustrator 27.1.1, SVG Export Plug-In . SVG Version: 6.00 Build 0)  -->
<svg version="1.1" id="Layer_1" xmlns="http://www.w3.org/2000/svg" xmlns:xlink="http://www.w3.org/1999/xlink" x="0px" y="0px"
	 viewBox="0 0 30 30" style="enable-background:new 0 0 30 30;" xml:space="preserve">
<style type="text/css">
	.st0{fill:#FFFFFF;}
	.st1{fill:#602D7B;}
</style>
<rect class="st0" width="30" height="30"/>
<path id="f36090769ad7d30db2b6fb519cf1a2da" class="st1" d="M15,2c0,0-9,7.7-14,11.9c-0.3,0.3-0.5,0.7-0.5,1.1
	c0,0.8,0.6,1.4,1.5,1.4h2.9v10.1c0,0.8,0.6,1.4,1.4,1.4h4.3c0.8,0,1.4-0.6,1.4-1.4v-5.8h5.8v5.8c0,0.8,0.6,1.4,1.4,1.4h4.3
	c0.8,0,1.5-0.6,1.5-1.4V16.5H28c0.8,0,1.5-0.6,1.5-1.4c0,0,0,0,0,0c0-0.4-0.2-0.8-0.6-1.1C24,9.7,15,2,15,2z"/>
</svg>
