<?xml version="1.0" encoding="utf-8"?>
<!-- Generator: Adobe Illustrator 27.1.1, SVG Export Plug-In . SVG Version: 6.00 Build 0)  -->
<svg version="1.1" id="Layer_1" xmlns="http://www.w3.org/2000/svg" xmlns:xlink="http://www.w3.org/1999/xlink" x="0px" y="0px"
	 viewBox="0 0 30 30" style="enable-background:new 0 0 30 30;" xml:space="preserve">
<style type="text/css">
	.st0{fill:#FFFFFF;}
	.st1{fill:#602D7B;}
</style>
<rect class="st0" width="30" height="30"/>
<path class="st1" d="M29.5,24.7c0-1.2-1-2.2-2.2-2.4l2.2-13.8c0.1-0.3-0.2-0.6-0.5-0.7c0,0-0.1,0-0.1,0H6.2L5.3,3.4
	C5.3,3.1,5,2.9,4.8,2.9H1.1v0c-0.3,0-0.6,0.3-0.6,0.6c0,0.3,0.3,0.6,0.6,0.6h3.1L7.8,23c0.1,0.3,0.3,0.5,0.6,0.5h18.5
	c0.7-0.1,1.3,0.3,1.4,1c0.1,0.7-0.3,1.3-1,1.4c-0.1,0-0.3,0-0.4,0H8.3c-0.3,0-0.6,0.3-0.6,0.6c0,0.3,0.3,0.6,0.6,0.6h18.6
	C28.3,27.1,29.4,26.1,29.5,24.7z M24.6,9h3.6l-0.4,2.4h-3.4L24.6,9z M6.4,9h3.8l0.2,2.4H6.8L6.4,9z M7.1,12.6h3.5l0.2,2.4H7.5
	L7.1,12.6z M8.2,18.6l-0.5-2.4h3.1l0.2,2.4H8.2z M8.9,22.2l-0.5-2.4h2.7l0.2,2.4H8.9z M12,16.2h3v2.4h-2.8L12,16.2z M15,22.2h-2.5
	l-0.2-2.4H15V22.2z M15,15h-3.1l-0.2-2.4H15V15z M15,11.4h-3.4L11.4,9H15V11.4z M16.2,16.2h2.4v2.4h-2.4V16.2z M18.6,22.2h-2.4v-2.4
	h2.4V22.2z M18.6,15h-2.4v-2.4h2.4V15z M18.6,11.4h-2.4V9h2.4V11.4z M22.3,22.2h-2.5v-2.4h2.7L22.3,22.2z M22.6,18.6h-2.8l0-2.4h3
	L22.6,18.6z M22.9,15h-3.1v-2.4h3.3L22.9,15z M23.2,11.4h-3.4V9h3.6L23.2,11.4z M26.1,22.2h-2.6l0.2-2.4h2.8L26.1,22.2z M26.7,18.6
	h-2.8l0.2-2.4h3L26.7,18.6z M24.1,15l0.2-2.4h3.3L27.2,15H24.1z"/>
</svg>
