<?xml version="1.0" encoding="utf-8"?>
<!-- Generator: Adobe Illustrator 27.1.1, SVG Export Plug-In . SVG Version: 6.00 Build 0)  -->
<svg version="1.1" id="Layer_1" xmlns="http://www.w3.org/2000/svg" xmlns:xlink="http://www.w3.org/1999/xlink" x="0px" y="0px"
	 viewBox="0 0 30 30" style="enable-background:new 0 0 30 30;" xml:space="preserve">
<style type="text/css">
	.st0{fill:#FFFFFF;}
	.st1{fill:#602D7B;}
</style>
<rect class="st0" width="30" height="30"/>
<g id="c07282caf5b948df0db9e3cc936d5227" transform="translate(0.1 -0.028)">
	<g id="Path_487">
		<path class="st1" d="M15.8,29.5H14c-2.1,0-3.7-1.7-3.7-3.7c0-0.3-0.1-0.5-0.2-0.7c-0.2-0.4-0.6-0.7-1-0.8
			c-0.4-0.1-0.8-0.1-1.2,0.2c0,0,0,0,0,0c-1.8,1-4.1,0.3-5.1-1.5l-0.9-1.5c-0.5-0.9-0.6-1.9-0.4-2.8s0.9-1.8,1.7-2.2
			c0.2-0.1,0.5-0.3,0.6-0.6c0.4-0.8,0.2-1.8-0.6-2.2c-1.8-1-2.4-3.3-1.4-5.1L2.8,7c1-1.8,3.3-2.4,5.1-1.3c0.2,0.1,0.5,0.2,0.8,0.2
			c0,0,0,0,0,0c0.9,0,1.6-0.7,1.6-1.6c0-2,1.7-3.7,3.7-3.7h1.8c2.2,0.1,3.8,1.8,3.7,3.8c0,0.2,0.1,0.5,0.2,0.7
			c0.2,0.4,0.6,0.6,1,0.8c0.4,0.1,0.8,0,1.2-0.2C23.7,4.6,26,5.2,27,7l0.8,1.5c0,0,0,0,0,0.1c1,1.8,0.4,4-1.4,5.1
			c-0.3,0.1-0.5,0.3-0.6,0.6c-0.2,0.4-0.3,0.8-0.2,1.2c0.1,0.4,0.4,0.8,0.8,1c0.9,0.5,1.5,1.3,1.8,2.3c0.3,1,0.1,2-0.4,2.8L27,23.1
			c-1,1.8-3.3,2.4-5.1,1.3c-0.2-0.1-0.5-0.2-0.8-0.2c-0.9,0-1.6,0.7-1.6,1.6C19.5,27.9,17.8,29.5,15.8,29.5z M8.7,22.1
			c1.3,0,2.5,0.7,3.2,1.8c0.3,0.6,0.5,1.2,0.5,1.8c0,0.9,0.7,1.6,1.6,1.6h1.8c0.9,0,1.6-0.7,1.6-1.6c0-2,1.6-3.7,3.7-3.7
			c0.7,0,1.3,0.2,1.8,0.5c0.8,0.4,1.8,0.2,2.2-0.6l0.9-1.6c0.2-0.4,0.3-0.8,0.2-1.2c-0.1-0.4-0.4-0.8-0.7-1C24.6,17.8,24,17,23.7,16
			c-0.3-1-0.1-2,0.4-2.8c0.3-0.6,0.8-1.1,1.4-1.4c0.7-0.4,1-1.4,0.6-2.2c0,0,0,0,0,0l-0.9-1.5c-0.4-0.8-1.4-1-2.2-0.6
			c-0.8,0.5-1.8,0.6-2.8,0.4c-1-0.2-1.8-0.9-2.3-1.7c-0.3-0.6-0.5-1.2-0.5-1.8c0-0.9-0.7-1.7-1.6-1.7l-1.8,0c-0.9,0-1.6,0.7-1.6,1.6
			c0,2.1-1.7,3.7-3.7,3.7c0,0,0,0,0,0C8,7.9,7.4,7.8,6.9,7.4C6.1,7,5.1,7.3,4.7,8L3.7,9.6c-0.4,0.8-0.2,1.7,0.6,2.2
			c1.8,1,2.4,3.3,1.4,5.1c-0.3,0.6-0.8,1-1.4,1.4c-0.4,0.2-0.6,0.6-0.8,1c-0.1,0.4-0.1,0.8,0.2,1.2L4.6,22C5,22.8,6,23.1,6.8,22.6
			c0,0,0,0,0,0C7.4,22.3,8,22.1,8.7,22.1z"/>
	</g>
	<g id="Ellipse_14">
		<path class="st1" d="M14.9,19.8c-2.6,0-4.7-2.1-4.7-4.7s2.1-4.7,4.7-4.7s4.7,2.1,4.7,4.7S17.5,19.8,14.9,19.8z M14.9,12.4
			c-1.5,0-2.6,1.2-2.6,2.6s1.2,2.6,2.6,2.6s2.6-1.2,2.6-2.6S16.4,12.4,14.9,12.4z"/>
	</g>
</g>
</svg>
