<?xml version="1.0" encoding="utf-8"?>
<!-- Generator: Adobe Illustrator 27.1.1, SVG Export Plug-In . SVG Version: 6.00 Build 0)  -->
<svg version="1.1" id="Layer_1" xmlns="http://www.w3.org/2000/svg" xmlns:xlink="http://www.w3.org/1999/xlink" x="0px" y="0px"
	 viewBox="0 0 30 30" style="enable-background:new 0 0 30 30;" xml:space="preserve">
<style type="text/css">
	.st0{fill:#FFFFFF;}
	.st1{fill-rule:evenodd;clip-rule:evenodd;fill:#602D7B;}
</style>
<rect class="st0" width="30" height="30"/>
<path id="_264d89beaa432b28f34b81c6af95aa84" class="st1" d="M15,29.5c8,0,14.5-6.5,14.5-14.5S23,0.5,15,0.5S0.5,7,0.5,15
	S7,29.5,15,29.5z M19.4,12.1c0,2.4-1.9,4.4-4.4,4.4s-4.4-1.9-4.4-4.4s1.9-4.4,4.4-4.4S19.4,9.7,19.4,12.1z M6.3,22.2
	c3.6-4.8,10.4-5.8,15.2-2.2c0.8,0.6,1.6,1.4,2.2,2.2c-3.6,4.8-10.4,5.8-15.2,2.2C7.7,23.8,6.9,23.1,6.3,22.2z"/>
</svg>
