<?xml version="1.0" encoding="utf-8"?>
<!-- Generator: Adobe Illustrator 27.1.1, SVG Export Plug-In . SVG Version: 6.00 Build 0)  -->
<svg version="1.1" id="Layer_1" xmlns="http://www.w3.org/2000/svg" xmlns:xlink="http://www.w3.org/1999/xlink" x="0px" y="0px"
	 viewBox="0 0 22 22" style="enable-background:new 0 0 22 22;" xml:space="preserve">
<style type="text/css">
	.st0{fill:#E87DF9;}
</style>
<path class="st0" d="M17,9.7c0.3,0.3,0.4,0.6,0.4,1v0.7c0,0.4-0.1,0.7-0.4,1l-9.4,9.4C7.4,21.9,7.2,22,6.9,22
	c-0.2,0-0.5-0.1-0.7-0.3L5,20.4c-0.2-0.2-0.3-0.4-0.3-0.6s0.1-0.5,0.3-0.6l8.2-8.1L5,2.9C4.8,2.7,4.7,2.5,4.7,2.2
	C4.7,2,4.8,1.7,5,1.6l1.3-1.3C6.4,0.1,6.7,0,6.9,0c0.2,0,0.5,0.1,0.7,0.3L17,9.7z"/>
</svg>
