<?xml version="1.0" encoding="utf-8"?>
<!-- Generator: Adobe Illustrator 27.1.1, SVG Export Plug-In . SVG Version: 6.00 Build 0)  -->
<svg version="1.1" id="Layer_1" xmlns="http://www.w3.org/2000/svg" xmlns:xlink="http://www.w3.org/1999/xlink" x="0px" y="0px"
	 viewBox="0 0 22 22" style="enable-background:new 0 0 22 22;" xml:space="preserve">
<style type="text/css">
	.st0{fill:#E87DF9;}
</style>
<g>
	<path class="st0" d="M6.7,17.6c-1.2,0-2.2,1-2.2,2.2s1,2.2,2.2,2.2s2.2-1,2.2-2.2S7.8,17.6,6.7,17.6z"/>
	<path class="st0" d="M20.8,2.2H4.7L3.7,0H0.1v0.1v2.2h2.2l3.9,8.3l-1.5,2.8c-0.1,0.3-0.3,0.7-0.3,1c0,1.2,1,2.2,2.2,2.2h13.1v-2.2
		H7.1c-0.1,0-0.3-0.1-0.3-0.3c0-0.1,1-2,1-2H16c0.8,0,1.5-0.5,1.8-1.2l3.9-7.1c0-0.1,0.1-0.3,0.1-0.6C21.9,2.6,21.4,2.2,20.8,2.2z"
		/>
	<path class="st0" d="M17.6,17.6c-1.2,0-2.2,1-2.2,2.2s1,2.2,2.2,2.2s2.2-1,2.2-2.2S18.8,17.6,17.6,17.6z"/>
</g>
</svg>
