<?xml version="1.0" encoding="utf-8"?>
<!-- Generator: Adobe Illustrator 27.1.1, SVG Export Plug-In . SVG Version: 6.00 Build 0)  -->
<svg version="1.1" id="Layer_1" xmlns="http://www.w3.org/2000/svg" xmlns:xlink="http://www.w3.org/1999/xlink" x="0px" y="0px"
	 viewBox="0 0 22 22" style="enable-background:new 0 0 22 22;" xml:space="preserve">
<style type="text/css">
	.st0{fill:#E87DF9;}
</style>
<g>
	<path class="st0" d="M17.6,0H4.4C2,0,0,2,0,4.4v3.3h2.2V4.4c0-1.2,1-2.2,2.2-2.2h13.2c1.2,0,2.2,1,2.2,2.2v13.2
		c0,1.2-1,2.2-2.2,2.2H4.4c-1.2,0-2.2-1-2.2-2.2v-3.3H0v3.3C0,20,2,22,4.4,22h13.2c2.4,0,4.4-2,4.4-4.4V4.4C22,2,20,0,17.6,0z"/>
	<path class="st0" d="M0,11c0,0.6,0.5,1.1,1.1,1.1h10.5l-2.8,2.8c-0.4,0.4-0.4,1.1,0,1.6c0.4,0.4,1.1,0.4,1.5,0l4.6-4.6
		c0.5-0.4,0.5-1.1,0.1-1.5c0,0-0.1-0.1-0.1-0.1l-4.6-4.6c-0.4-0.4-1.1-0.4-1.6,0C8.4,6,8.4,6.6,8.8,7.1c0,0,0,0,0,0l2.8,2.8H1.1
		C0.5,9.9,0,10.4,0,11z"/>
</g>
</svg>
