<?xml version="1.0" encoding="utf-8"?>
<!-- Generator: Adobe Illustrator 27.1.1, SVG Export Plug-In . SVG Version: 6.00 Build 0)  -->
<svg version="1.1" id="Layer_1" xmlns="http://www.w3.org/2000/svg" xmlns:xlink="http://www.w3.org/1999/xlink" x="0px" y="0px"
	 viewBox="0 0 22 22" style="enable-background:new 0 0 22 22;" xml:space="preserve">
<style type="text/css">
	.st0{fill:#E87DF9;}
</style>
<path id="f36090769ad7d30db2b6fb519cf1a2da" class="st0" d="M11,1.2c0,0-6.8,5.8-10.7,9C0.1,10.5,0,10.8,0,11.1c0,0.6,0.5,1,1.2,1
	h2.2v7.6c0,0.6,0.5,1,1,1h3.2c0.6,0,1-0.5,1-1v-4.4h4.4v4.4c0,0.6,0.5,1,1,1h3.2c0.6,0,1.2-0.5,1.2-1v-7.6h2.3c0.6,0,1.2-0.5,1.2-1
	l0,0c0-0.3-0.1-0.6-0.5-0.8C17.8,7,11,1.2,11,1.2z"/>
</svg>
