<?xml version="1.0" encoding="utf-8"?>
<!-- Generator: Adobe Illustrator 27.1.1, SVG Export Plug-In . SVG Version: 6.00 Build 0)  -->
<svg version="1.1" id="Layer_1" xmlns="http://www.w3.org/2000/svg" xmlns:xlink="http://www.w3.org/1999/xlink" x="0px" y="0px"
	 viewBox="0 0 22 22" style="enable-background:new 0 0 22 22;" xml:space="preserve">
<style type="text/css">
	.st0{fill:#E87DF9;}
</style>
<g>
	<path class="st0" d="M18.5,3.3c-0.2-0.2-0.5-0.2-0.7,0c-0.2,0.2-0.2,0.5,0,0.7C17.8,4.1,18,4.3,18,4.3c3.7,3.9,3.7,10.2-0.2,13.9
		S7.7,21.9,4,18S0.4,7.9,4.3,4.1c0.2-0.2,0.2-0.5,0-0.7C4,3.1,3.7,3.1,3.5,3.4c-2.2,2-3.4,4.9-3.4,7.8C0.2,17.1,5,22,11,22
		c2.9,0,5.8-1.2,7.8-3.4C23,14.3,22.8,7.4,18.5,3.3z"/>
	<path class="st0" d="M11,12c0.3,0,0.5-0.2,0.5-0.5v-11C11.5,0.2,11.3,0,11,0c-0.3,0-0.5,0.2-0.5,0.5v11C10.5,11.8,10.7,12,11,12z"
		/>
</g>
</svg>
