<?xml version="1.0" encoding="utf-8"?>
<!-- Generator: Adobe Illustrator 27.1.1, SVG Export Plug-In . SVG Version: 6.00 Build 0)  -->
<svg version="1.1" id="Layer_1" xmlns="http://www.w3.org/2000/svg" xmlns:xlink="http://www.w3.org/1999/xlink" x="0px" y="0px"
	 viewBox="0 0 22 22" style="enable-background:new 0 0 22 22;" xml:space="preserve">
<style type="text/css">
	.st0{fill-rule:evenodd;clip-rule:evenodd;fill:#E87DF9;}
</style>
<path class="st0" d="M16,10.7c0.3,0.3,0.3,0.7,0,0.9l-5.3,5.3c-0.1,0.1-0.3,0.2-0.5,0.2c-0.2,0-0.3-0.1-0.5-0.2L7,14.2
	c-0.3-0.3-0.3-0.7,0-0.9c0.3-0.3,0.7-0.3,0.9,0l2.3,2.3l4.9-4.9C15.3,10.4,15.7,10.4,16,10.7z M19.1,19c0,0.9-0.7,1.6-1.6,1.6H4.5
	c-0.9,0-1.6-0.7-1.6-1.6V7.6h16.2V19z M5.7,2.2C6,1.7,6.5,1.4,7,1.4h3.3v4.8H3.4L5.7,2.2z M11.7,1.4H15c0.6,0,1.1,0.3,1.3,0.8l2.3,4
	h-6.9V1.4z M20.3,6.6C20.3,6.6,20.3,6.6,20.3,6.6l-2.9-5.1C17,0.6,16,0,15,0H7C6,0,5,0.6,4.5,1.5L1.7,6.5c0,0,0,0,0,0
	c0,0.1-0.1,0.2-0.1,0.3V19c0,1.6,1.3,3,2.9,3h13.1c1.6,0,2.9-1.3,2.9-3V6.9C20.4,6.8,20.4,6.7,20.3,6.6z"/>
</svg>
