<?xml version="1.0" encoding="utf-8"?>
<!-- Generator: Adobe Illustrator 27.1.1, SVG Export Plug-In . SVG Version: 6.00 Build 0)  -->
<svg version="1.1" id="Layer_1" xmlns="http://www.w3.org/2000/svg" xmlns:xlink="http://www.w3.org/1999/xlink" x="0px" y="0px"
	 viewBox="0 0 22 22" style="enable-background:new 0 0 22 22;" xml:space="preserve">
<style type="text/css">
	.st0{fill-rule:evenodd;clip-rule:evenodd;fill:#E87DF9;}
</style>
<path class="st0" d="M20.8,12.4c0,0.1-0.1,0.2-0.2,0.2h-1c-0.6,0-1.1,0.4-1.3,1c-0.1,0.3-0.2,0.5-0.3,0.8c-0.3,0.6-0.2,1.2,0.3,1.6
	l0.7,0.7c0,0,0,0.1,0,0.1s0,0.1,0,0.1l-2,2c0,0-0.1,0-0.1,0c0,0-0.1,0-0.1,0L16,18.2c-0.4-0.4-1.1-0.5-1.6-0.3
	c-0.3,0.1-0.5,0.2-0.8,0.3c-0.6,0.2-1,0.7-1,1.3v1c0,0.1-0.1,0.2-0.2,0.2H9.6c-0.1,0-0.2-0.1-0.2-0.2v-1c0-0.6-0.4-1.1-1-1.3
	c-0.3-0.1-0.5-0.2-0.8-0.3c-0.2-0.1-0.4-0.2-0.6-0.2c-0.4,0-0.7,0.1-1,0.4l-0.7,0.7c0,0-0.1,0-0.1,0c0,0-0.1,0-0.1,0l-2-2
	c0,0,0-0.1,0-0.1s0-0.1,0-0.1L3.8,16c0.4-0.4,0.5-1.1,0.3-1.6c-0.1-0.3-0.2-0.5-0.3-0.8c-0.2-0.6-0.7-1-1.3-1h-1
	c-0.1,0-0.2-0.1-0.2-0.2V9.6c0-0.1,0.1-0.2,0.2-0.2h1c0.6,0,1.1-0.4,1.3-1C3.8,8.2,3.9,7.9,4,7.7C4.3,7.1,4.2,6.4,3.8,6L3.1,5.3
	c0,0,0-0.1,0-0.1c0,0,0-0.1,0-0.1l2-2c0,0,0.1,0,0.1,0c0,0,0.1,0,0.1,0L6,3.8C6.4,4.2,7.1,4.3,7.7,4c0.3-0.1,0.5-0.2,0.8-0.3
	c0.6-0.2,1-0.7,1-1.3v-1c0-0.1,0.1-0.2,0.2-0.2h2.9c0.1,0,0.2,0.1,0.2,0.2v1c0,0.6,0.4,1.1,1,1.3c0.3,0.1,0.5,0.2,0.8,0.3
	c0.6,0.3,1.2,0.2,1.6-0.3l0.7-0.7c0,0,0.1,0,0.1,0c0,0,0.1,0,0.1,0l2,2c0,0,0,0.1,0,0.1c0,0,0,0.1,0,0.1L18.2,6
	c-0.4,0.4-0.5,1.1-0.3,1.6c0.1,0.3,0.2,0.5,0.3,0.8c0.2,0.6,0.7,1,1.3,1h1c0.1,0,0.2,0.1,0.2,0.2V12.4z M20.6,8.2h-1
	c-0.1,0-0.1-0.1-0.1-0.1c-0.1-0.3-0.2-0.6-0.4-0.9c0-0.1,0-0.1,0-0.2l0.7-0.7c0.3-0.3,0.4-0.6,0.4-1c0-0.4-0.1-0.7-0.4-1l-2-2
	c-0.3-0.3-0.6-0.4-1-0.4h0c-0.4,0-0.7,0.1-1,0.4l-0.7,0.7c-0.1,0.1-0.1,0-0.2,0c-0.3-0.1-0.6-0.3-0.9-0.4c-0.1,0-0.1-0.1-0.1-0.1v-1
	c0-0.8-0.6-1.4-1.4-1.4H9.6C8.8,0,8.2,0.6,8.2,1.4v1c0,0.1-0.1,0.1-0.1,0.1C7.7,2.6,7.4,2.8,7.1,2.9C7,2.9,7,3,6.9,2.9L6.2,2.2
	C6,1.9,5.6,1.8,5.2,1.8h0c-0.4,0-0.7,0.1-1,0.4l-2,2c-0.3,0.3-0.4,0.6-0.4,1c0,0.4,0.1,0.7,0.4,1l0.7,0.7C3,7,2.9,7,2.9,7.1
	C2.8,7.4,2.6,7.7,2.5,8c0,0.1-0.1,0.1-0.2,0.1h-1C0.6,8.2,0,8.8,0,9.6v2.9c0,0.8,0.6,1.4,1.4,1.4h1c0.1,0,0.1,0.1,0.2,0.1
	c0.1,0.3,0.2,0.6,0.4,0.9c0,0.1,0,0.1,0,0.2l-0.7,0.7c-0.3,0.3-0.4,0.6-0.4,1c0,0.4,0.1,0.7,0.4,1l2,2c0.3,0.3,0.6,0.4,1,0.4h0
	c0.4,0,0.7-0.1,1-0.4l0.7-0.7c0.1-0.1,0.1,0,0.2,0c0.3,0.1,0.6,0.3,0.9,0.4c0.1,0,0.1,0.1,0.1,0.2v1c0,0.8,0.6,1.4,1.4,1.4h2.9
	c0.8,0,1.4-0.6,1.4-1.4v-1c0-0.1,0.1-0.1,0.1-0.2c0.3-0.1,0.6-0.2,0.9-0.4c0.1,0,0.1,0,0.2,0l0.7,0.7c0.3,0.3,0.6,0.4,1,0.4h0
	c0.4,0,0.7-0.1,1-0.4l2-2c0.3-0.3,0.4-0.6,0.4-1c0-0.4-0.1-0.7-0.4-1l-0.7-0.7c-0.1-0.1,0-0.1,0-0.2c0.1-0.3,0.3-0.6,0.4-0.9
	c0-0.1,0.1-0.1,0.1-0.1h1c0.8,0,1.4-0.6,1.4-1.4V9.6C22,8.8,21.4,8.2,20.6,8.2z M11,14c-1.7,0-3-1.4-3-3c0-1.7,1.4-3,3-3
	c1.7,0,3,1.4,3,3C14,12.7,12.7,14,11,14z M11,6.7c-2.3,0-4.3,1.9-4.3,4.3c0,2.3,1.9,4.3,4.3,4.3c2.3,0,4.3-1.9,4.3-4.3
	C15.3,8.7,13.3,6.7,11,6.7z"/>
</svg>
