<?xml version="1.0" encoding="utf-8"?>
<!-- Generator: Adobe Illustrator 27.1.1, SVG Export Plug-In . SVG Version: 6.00 Build 0)  -->
<svg version="1.1" id="Layer_1" xmlns="http://www.w3.org/2000/svg" xmlns:xlink="http://www.w3.org/1999/xlink" x="0px" y="0px"
	 viewBox="0 0 22 22" style="enable-background:new 0 0 22 22;" xml:space="preserve">
<style type="text/css">
	.st0{fill-rule:evenodd;clip-rule:evenodd;fill:#E87DF9;}
</style>
<path id="_264d89beaa432b28f34b81c6af95aa84" class="st0" d="M11,22c6,0,11-5,11-11.1S17,0,11,0S0,4.9,0,11S4.9,22,11,22L11,22z
	 M14.3,8.7c0,1.8-1.5,3.3-3.3,3.3s-3.3-1.5-3.3-3.3S9.2,5.4,11,5.4S14.3,6.9,14.3,8.7z M4.4,16.4c2.7-3.6,7.8-4.4,11.5-1.7
	c0.6,0.5,1.2,1,1.7,1.7c-2.7,3.6-7.8,4.4-11.5,1.7C5.6,17.7,4.9,17.1,4.4,16.4z"/>
</svg>
