<?xml version="1.0" encoding="utf-8"?>
<!-- Generator: Adobe Illustrator 27.1.1, SVG Export Plug-In . SVG Version: 6.00 Build 0)  -->
<svg version="1.1" id="Layer_1" xmlns="http://www.w3.org/2000/svg" xmlns:xlink="http://www.w3.org/1999/xlink" x="0px" y="0px"
	 viewBox="0 0 24 24" style="enable-background:new 0 0 24 24;" xml:space="preserve">
<g>
	<path d="M21.7,4c-1.2,0-2.4,0-3.6,0C14.9,4,7.4,4,5.9,4C5.8,4,5.7,4,5.6,4C5.3,2.9,5.1,1.8,4.8,0.7C4.7,0.1,4.3-0.1,3.6,0
		C2.7,0.1,1.9,0.1,1.1,0C0.5-0.1,0,0.3,0,0.8c0,0.5,0.4,0.8,0.9,0.8c0.7,0,1.4,0,2.1,0c0.3,0,0.4,0.1,0.4,0.3
		C4.2,5,4.9,8.1,5.6,11.2C5.8,12,6,12.8,6.2,13.6c-0.1,0-0.1,0-0.2,0c-1.3,0.2-2.2,1.5-1.9,2.8c0.2,1.2,1.2,2,2.4,2
		c4.5,0,9,0,13.5,0c0,0,0.1,0,0.1,0c0.4,0,0.7-0.3,0.7-0.7c0-0.4-0.2-0.8-0.6-0.8c-0.1,0-0.2,0-0.3,0c-4.4,0-8.8,0-13.2,0
		c-0.1,0-0.2,0-0.3,0c-0.4,0-0.7-0.4-0.7-0.8c0-0.4,0.2-0.7,0.6-0.8c0.1,0,0.2,0,0.3,0c4.4,0,8.8,0,13.2,0c1.2,0,2.1-0.7,2.4-1.9
		c0.6-2.1,1.1-4.2,1.7-6.3C24.3,5.5,23.2,4.1,21.7,4z M22.4,6.6c-0.5,2.1-1.1,4.2-1.7,6.3c-0.1,0.4-0.4,0.6-0.8,0.6
		c-3.9,0-7.9,0-11.8,0c-0.2,0-0.2,0-0.2-0.2c-0.3-1.3-0.6-2.7-0.9-4C6.5,8.1,6.3,6.9,5.9,5.6c0.2,0,0.3,0,0.5,0c1.7,0,11.8,0,13.5,0
		c0,0,0,0,0,0c0.6,0,1.1,0,1.7,0C22.1,5.6,22.5,6.1,22.4,6.6z"/>
	<path d="M8.8,19.2c-1.3,0-2.4,1.1-2.4,2.4c0,1.3,1.1,2.4,2.4,2.4c1.3,0,2.4-1.1,2.4-2.4C11.2,20.3,10.1,19.2,8.8,19.2z M8.8,22.4
		C8.4,22.4,8,22,8,21.6c0-0.4,0.4-0.8,0.8-0.8c0.4,0,0.8,0.4,0.8,0.8C9.6,22,9.2,22.4,8.8,22.4z"/>
	<path d="M17.6,19.2c-1.3,0-2.4,1.1-2.4,2.4c0,1.3,1.1,2.4,2.4,2.4c1.3,0,2.4-1.1,2.4-2.4C20,20.3,18.9,19.2,17.6,19.2z M17.6,22.4
		c-0.4,0-0.8-0.4-0.8-0.8c0-0.4,0.4-0.8,0.8-0.8c0.4,0,0.8,0.4,0.8,0.8C18.4,22,18,22.4,17.6,22.4z"/>
</g>
</svg>
