<?xml version="1.0" encoding="UTF-8"?>
<svg id="Layer_1" data-name="Layer 1" xmlns="http://www.w3.org/2000/svg" viewBox="0 0 18.9 19">
  <defs>
    <style>
      .cls-1 {
        fill: #602d7b;
      }
    </style>
  </defs>
  <path class="cls-1" d="m5.7,15.2c-1,0-1.9.9-1.9,1.9s.9,1.9,1.9,1.9,1.9-.9,1.9-1.9-.9-1.9-1.9-1.9h0Z"/>
  <path class="cls-1" d="m0,0v1.9h1.9l3.4,7.2-1.3,2.4c-.1.3-.3.6-.3.9,0,1,.9,1.9,1.9,1.9h11.4v-1.9H6.1c-.1,0-.3-.1-.3-.3h0c0-.1.9-1.7.9-1.7h7.1c.7,0,1.3-.4,1.6-1l3.4-6.2c0-.1.1-.3.1-.5,0-.5-.4-.9-.9-.9H4l-.9-1.9H0Z"/>
  <path class="cls-1" d="m15.2,15.2c-1,0-1.9.9-1.9,1.9s.9,1.9,1.9,1.9,1.9-.9,1.9-1.9-.9-1.9-1.9-1.9h0Z"/>
</svg>